<?xml version="1.0" encoding="utf-8"?>
<svg xmlns="http://www.w3.org/2000/svg" viewBox="0 0 48 48" width="144" height="144">
  <path d="M16.5 8C13.480226 8 11 10.480226 11 13.5L11 18.853516L9.21875 19.402344L9.21875 19.400391C7.4783059 19.935527 5.9916527 21.088164 5.0371094 22.638672L2.5566406 26.669922 A 1.50015 1.50015 0 1 0 5.1113281 28.242188L7.5917969 24.210938C8.1652535 23.279446 9.0580071 22.590395 10.101562 22.269531L11 21.992188L11 28.400391C11 28.91558 11.08648 29.415898 11.246094 29.882812 A 1.50015 1.50015 0 0 0 13.453125 30.673828L22.195312 25.28125 A 1.50015 1.50015 0 0 0 22.212891 25.269531C22.848879 24.864622 23.65954 24.952509 24.193359 25.486328C24.840557 26.134052 24.826457 27.137947 24.162109 27.767578L21.419922 30.277344 A 1.50015 1.50015 0 0 0 21.128906 30.541016 A 1.50015 1.50015 0 0 0 21.121094 30.550781L13.75 37.291016C12.552954 38.385667 10.991358 38.992515 9.3691406 38.994141L3.4980469 39 A 1.50015 1.50015 0 1 0 3.5019531 42L8.3125 41.996094 A 1.50015 1.50015 0 0 0 8.5 42.005859L18.371094 42C20.741691 41.9976 23.026686 41.108886 24.775391 39.509766L31.892578 33L40.5 33C43.519774 33 46 30.519774 46 27.5L46 13.5C46 10.480226 43.519774 8 40.5 8L16.5 8 z M 16.5 11L40.5 11C41.898226 11 43 12.101774 43 13.5L43 15L14 15L14 13.5C14 12.101774 15.101774 11 16.5 11 z M 14 18L43 18L43 27.5C43 28.898226 41.898226 30 40.5 30L31.521484 30 A 1.50015 1.50015 0 0 0 31.347656 29.986328 A 1.50015 1.50015 0 0 0 31.138672 30L26.166016 30L26.207031 29.962891 A 1.50015 1.50015 0 0 0 26.226562 29.945312C28.088216 28.180944 28.127256 25.17951 26.314453 23.365234C24.798707 21.849493 22.41134 21.588338 20.603516 22.738281L14 26.810547L14 20.205078 A 1.50015 1.50015 0 0 0 14 19.712891L14 18 z M 22.886719 33L27.447266 33L22.75 37.296875C21.552704 38.391754 19.992544 38.998374 18.369141 39L16.324219 39.001953L22.886719 33 z" fill="#3EBF64" />
</svg>