<?xml version="1.0" encoding="utf-8"?>
<svg xmlns="http://www.w3.org/2000/svg" viewBox="0 0 48 48" width="144" height="144">
  <path d="M20.445312 8.0390625C16.965837 8.0390625 14 10.711821 14 14.113281C14 15.804509 14.740152 17.395593 15.990234 18.496094L15.90625 18.417969L22.925781 25.617188 A 1.50015 1.50015 0 0 0 25.074219 25.617188L32.044922 18.462891L31.962891 18.541016C33.245265 17.406753 34 15.802262 34 14.113281C34 10.711821 31.034162 8.0390625 27.554688 8.0390625C26.252154 8.0390625 25.06053 8.5135596 24 9.1992188C22.939245 8.5135055 21.747301 8.0390625 20.445312 8.0390625 z M 20.445312 11.039062C21.425944 11.039062 22.310462 11.402114 22.955078 12.027344 A 1.50015 1.50015 0 0 0 25.044922 12.027344C25.689924 11.401741 26.57278 11.039063 27.554688 11.039062C29.529211 11.039062 31 12.470742 31 14.113281C31 14.9383 30.668183 15.681232 29.976562 16.292969 A 1.50015 1.50015 0 0 0 29.896484 16.371094L24 22.421875L18.054688 16.322266 A 1.50015 1.50015 0 0 0 17.972656 16.244141C17.350737 15.696646 17 14.938054 17 14.113281C17 12.470742 18.470788 11.039064 20.445312 11.039062 z M 5.5703125 12.998047C3.774293 12.998047 2.3253637 14.332652 1.9921875 16.039062 A 1.50015 1.50015 0 0 0 1.8535156 16.634766L1.8535156 16.689453L1.859375 16.689453C1.859299 16.699153 1.8535156 16.707117 1.8535156 16.716797 A 1.50015 1.50015 0 0 0 1.8710938 16.927734C2.3133223 22.04421 2.498994 25.327781 2.7617188 27.566406C3.0278202 29.833805 3.4253454 31.331595 4.5097656 32.416016C6.6096224 34.5169 8.2772778 35.844732 9.8710938 37.181641C11.833153 38.826792 11.853516 39.979085 11.853516 40.5 A 1.50015 1.50015 0 1 0 14.853516 40.5C14.853516 39.368915 14.368769 37.037661 11.798828 34.882812C10.166644 33.513722 8.6189557 32.282037 6.6328125 30.294922 A 1.50015 1.50015 0 0 0 6.6308594 30.294922C6.2372767 29.901343 5.9848828 29.301398 5.7402344 27.216797C5.4996123 25.166503 5.3052975 21.828001 4.8632812 16.707031C4.8713913 16.30129 5.1615627 15.998047 5.5703125 15.998047C5.8387309 15.998047 5.8945915 16.043227 5.9941406 16.144531C6.0936896 16.245834 6.2377806 16.48236 6.3046875 16.935547C6.5054305 18.295259 7.6367188 26.107422 7.6367188 26.107422 A 1.5008089 1.5008089 0 0 0 7.6601562 26.226562C7.7653482 27.00501 8.0999453 27.756195 8.6914062 28.347656L12.351562 32.005859 A 1.50015 1.50015 0 1 0 14.472656 29.884766L10.814453 26.226562C10.702808 26.114918 10.647722 25.981868 10.621094 25.845703 A 1.5008089 1.5008089 0 0 0 10.607422 25.677734C10.607422 25.677734 10.605475 25.662154 10.605469 25.662109C10.619333 25.501134 10.683221 25.342321 10.814453 25.210938C11.107256 24.918135 11.535944 24.917143 11.830078 25.210938L14.125 27.505859C15.78803 29.168889 17.323646 29.956386 18.507812 30.46875C19.691979 30.981114 20.384025 31.219963 21 31.835938C21.899649 32.735586 22.34375 34.054878 22.34375 36.457031C22.34375 38.708482 22.353516 40.509766 22.353516 40.509766 A 1.50015 1.50015 0 0 0 23.935547 42.015625 A 1.50015 1.50015 0 0 0 25.5 40.509766C25.5 40.509766 25.509766 38.708482 25.509766 36.457031C25.509766 34.054878 25.953867 32.735587 26.853516 31.835938C27.46949 31.219963 28.161537 30.981114 29.345703 30.46875C30.52987 29.956386 32.065486 29.168889 33.728516 27.505859L36.023438 25.210938C36.317571 24.917143 36.74626 24.918135 37.039062 25.210938C37.170295 25.342321 37.234183 25.501134 37.248047 25.662109C37.24804 25.662154 37.246094 25.677734 37.246094 25.677734 A 1.50015 1.50015 0 0 0 37.228516 25.869141C37.198831 25.997 37.144354 26.121271 37.039062 26.226562L33.380859 29.884766 A 1.50015 1.50015 0 1 0 35.501953 32.005859L39.160156 28.347656C39.745208 27.762604 40.079805 27.021344 40.189453 26.251953 A 1.50015 1.50015 0 0 0 40.214844 26.107422C40.214844 26.107422 41.348085 18.295259 41.548828 16.935547C41.615738 16.48236 41.759826 16.245834 41.859375 16.144531C41.958925 16.043228 42.012832 15.998047 42.28125 15.998047C42.690007 15.998047 42.982131 16.301278 42.990234 16.707031C42.548204 21.828135 42.353907 25.166472 42.113281 27.216797C41.868633 29.301398 41.614283 29.901342 41.220703 30.294922C39.23456 32.282037 37.686872 33.513721 36.054688 34.882812C33.484746 37.037661 33 39.368915 33 40.5 A 1.50015 1.50015 0 1 0 36 40.5C36 39.979085 36.02036 38.826792 37.982422 37.181641C39.575914 35.845004 41.242543 34.516158 43.341797 32.416016C44.426217 31.331595 44.825695 29.833805 45.091797 27.566406C45.354765 25.325706 45.541248 22.042701 45.984375 16.917969 A 1.50015 1.50015 0 0 0 46 16.716797C46 16.707097 45.994241 16.699113 45.994141 16.689453L46 16.689453L45.998047 16.634766 A 1.50015 1.50015 0 0 0 45.861328 16.035156C45.526693 14.33059 44.075944 12.998047 42.28125 12.998047C41.324668 12.998047 40.373154 13.377069 39.720703 14.041016C39.068252 14.704963 38.716171 15.576234 38.580078 16.498047C38.452033 17.365346 38.096638 19.821277 37.748047 22.224609C37.354031 22.089754 36.944249 22.009778 36.53125 22.009766C35.576706 22.009737 34.622277 22.368788 33.902344 23.087891 A 1.50015 1.50015 0 0 0 33.902344 23.089844L31.605469 25.384766C30.239499 26.750736 29.21313 27.256708 28.154297 27.714844C27.095463 28.172979 25.863447 28.583818 24.732422 29.714844C24.423967 30.023299 24.163091 30.36414 23.925781 30.720703C23.688614 30.364482 23.429288 30.023038 23.121094 29.714844C21.990068 28.583818 20.758052 28.172979 19.699219 27.714844C18.640385 27.256708 17.612064 26.750736 16.246094 25.384766L13.951172 23.089844 A 1.50015 1.50015 0 0 0 13.949219 23.087891C13.229286 22.368788 12.274858 22.009737 11.320312 22.009766C10.907937 22.009778 10.498948 22.090165 10.105469 22.224609C9.7568773 19.821277 9.4014825 17.365346 9.2734375 16.498047C9.1373444 15.576234 8.7852634 14.704963 8.1328125 14.041016C7.4803616 13.377069 6.5268941 12.998047 5.5703125 12.998047 z" fill="#3EBF64" />
</svg>