<svg id="visual" viewBox="0 0 600 900" width="600" height="900" xmlns="http://www.w3.org/2000/svg" xmlns:xlink="http://www.w3.org/1999/xlink" version="1.1"><path d="M0 253L25 229C50 205 100 157 150 131.5C200 106 250 103 300 127C350 151 400 202 450 218.5C500 235 550 217 575 208L600 199L600 0L575 0C550 0 500 0 450 0C400 0 350 0 300 0C250 0 200 0 150 0C100 0 50 0 25 0L0 0Z" fill="#6198ff"></path><path d="M0 406L25 401.5C50 397 100 388 150 374.5C200 361 250 343 300 344.5C350 346 400 367 450 371.5C500 376 550 364 575 358L600 352L600 197L575 206C550 215 500 233 450 216.5C400 200 350 149 300 125C250 101 200 104 150 129.5C100 155 50 203 25 227L0 251Z" fill="#4f8cff"></path><path d="M0 433L25 430C50 427 100 421 150 407.5C200 394 250 373 300 380.5C350 388 400 424 450 436C500 448 550 436 575 430L600 424L600 350L575 356C550 362 500 374 450 369.5C400 365 350 344 300 342.5C250 341 200 359 150 372.5C100 386 50 395 25 399.5L0 404Z" fill="#3c80ff"></path><path d="M0 478L25 476.5C50 475 100 472 150 457C200 442 250 415 300 424C350 433 400 478 450 490C500 502 550 481 575 470.5L600 460L600 422L575 428C550 434 500 446 450 434C400 422 350 386 300 378.5C250 371 200 392 150 405.5C100 419 50 425 25 428L0 431Z" fill="#2573ff"></path><path d="M0 568L25 568C50 568 100 568 150 548.5C200 529 250 490 300 490C350 490 400 529 450 542.5C500 556 550 544 575 538L600 532L600 458L575 468.5C550 479 500 500 450 488C400 476 350 431 300 422C250 413 200 440 150 455C100 470 50 473 25 474.5L0 476Z" fill="#0066ff"></path><path d="M0 748L25 733C50 718 100 688 150 667C200 646 250 634 300 637C350 640 400 658 450 671.5C500 685 550 694 575 698.5L600 703L600 530L575 536C550 542 500 554 450 540.5C400 527 350 488 300 488C250 488 200 527 150 546.5C100 566 50 566 25 566L0 566Z" fill="#005fee"></path><path d="M0 820L25 809.5C50 799 100 778 150 758.5C200 739 250 721 300 728.5C350 736 400 769 450 781C500 793 550 784 575 779.5L600 775L600 701L575 696.5C550 692 500 683 450 669.5C400 656 350 638 300 635C250 632 200 644 150 665C100 686 50 716 25 731L0 746Z" fill="#0059dd"></path><path d="M0 874L25 866.5C50 859 100 844 150 833.5C200 823 250 817 300 821.5C350 826 400 841 450 850C500 859 550 862 575 863.5L600 865L600 773L575 777.5C550 782 500 791 450 779C400 767 350 734 300 726.5C250 719 200 737 150 756.5C100 776 50 797 25 807.5L0 818Z" fill="#0052cc"></path><path d="M0 901L25 901C50 901 100 901 150 901C200 901 250 901 300 901C350 901 400 901 450 901C500 901 550 901 575 901L600 901L600 863L575 861.5C550 860 500 857 450 848C400 839 350 824 300 819.5C250 815 200 821 150 831.5C100 842 50 857 25 864.5L0 872Z" fill="#004cbb"></path></svg>